<?xml version="1.0" encoding="UTF-8"?>
<svg id="Layer_1" data-name="Layer 1" xmlns="http://www.w3.org/2000/svg" viewBox="0 0 242.03 242.03">
  <defs>
    <style>
      .cls-1 {
        fill: #cf4929;
      }

      .cls-2 {
        fill: #eeeed8;
      }
    </style>
  </defs>
  <circle class="cls-1" cx="121.02" cy="121.02" r="121.02"/>
  <g>
    <path class="cls-2" d="M58.15,177.78c-.5,0-.99-.19-1.36-.53-.81-.75-.85-2.01-.11-2.82,18.68-20.15,29.33-35.94,41.67-54.22,5.26-7.79,10.7-15.85,17.3-25.11,11.58-16.24,24.56-33.26,40.98-47.64.36-.32.83-.49,1.31-.49.57,0,1.12.25,1.5.68.35.4.52.91.49,1.45-.04.53-.27,1.02-.68,1.37-16.1,14.11-28.91,30.91-40.36,46.95-6.58,9.22-12,17.26-17.24,25.02-12.43,18.42-23.16,34.32-42.05,54.7-.38.41-.91.64-1.46.64Z"/>
    <path class="cls-2" d="M145.8,177.77c-.51-.01-1.01-.23-1.38-.61-.37-.38-.57-.89-.55-1.42l1.03-48.65c0-.09,0-.17.02-.25.66-4.49,1.32-8.99,1.98-13.49,1.52-10.32,3.1-21,4.6-31.58,1.07-7.58,2.09-15.3,3.07-22.77l.1-.8c.41-3.13.82-6.26,1.24-9.4.13-.99.98-1.73,1.98-1.73.08,0,.17,0,.25.02.53.07,1,.34,1.33.77.32.42.46.95.39,1.47-.42,3.18-.84,6.35-1.26,9.53l-.09.65c-.99,7.5-2,15.23-3.07,22.82-1.48,10.47-3.05,21.1-4.57,31.39l-.03.22c-.66,4.45-1.31,8.91-1.97,13.36l-1.03,48.53c-.02,1.08-.92,1.95-1.99,1.95h-.06Z"/>
    <path class="cls-2" d="M81.07,150.03c-.46,0-1.55-.21-1.55-2.13,0-1.1.89-1.99,1.99-1.99.8,0,1.29.03,1.91.06.23.01.48.03.76.04,1.07.05,2.07.1,3.06.1,1.26,0,2.29-.08,3.23-.25,14.71-2.65,29.51-5.46,43.81-8.17,4.82-.91,9.65-1.83,14.47-2.74.13-.02.25-.04.38-.04.94,0,1.96.66,1.96,1.73,0,1.29-.46,1.59-1.48,1.79-4.73.89-9.45,1.79-14.18,2.69l-.29.05c-14.39,2.73-29.23,5.54-43.85,8.18-1.17.21-2.43.31-3.95.31-1.08,0-2.17-.05-3.22-.1h-.13c-.42,0-.87.1-1.35.22-.52.12-1.05.25-1.6.25Z"/>
  </g>
</svg>