<?xml version="1.0" encoding="UTF-8"?>
<svg id="Capa_1" data-name="Capa 1" xmlns="http://www.w3.org/2000/svg" viewBox="0 0 1920 358.39">
  <defs>
    <style>
      .cls-1 {
        fill: #cf4a29;
      }
    </style>
  </defs>
  <path class="cls-1" d="M775.87,298.35c-1.52,0-2.99-.05-4.43-.14-10.5-.66-19.39-7.27-23.19-17.25-3.91-10.27-1.66-19.89,5.98-27.63,35.86-36.31,76.03-50.19,122.79-42.43,1.67.28,2.79,1.85,2.52,3.52-.28,1.67-1.68,2.05-3.35,1.79-45.29-7.51-82.6,5.42-117.44,40.7-5.94,6.02-7.74,14.72-4.69,22.72,2.98,7.83,9.66,12.81,17.87,13.33,18.94,1.2,44.73-6.06,86.21-24.27,1.19-.52,2.57-.24,3.46.71,29.42,31.37,62.04,20.44,98.56,4.16,15.8-7.05,31.02-16.34,45.74-25.33,8.95-5.47,18.21-11.12,27.56-16.25,7.71-4.23,16.69-6.15,24.46-7.47,18.72-3.18,31.45,7.14,34.77,25.49.3,1.66-.38,1.72-2.05,2.02-1.66.3-3.25-.8-3.55-2.46-2.74-15.14-14.87-23.13-30.39-20.5-7.27,1.23-16.04,4.54-22.96,8.34-9.23,5.06-18.42,10.68-27.31,16.11-14.88,9.09-30,19.14-46.44,25.7-38.99,15.54-69.71,27.43-101.46-4.88-38.27,16.68-63.51,24.05-82.66,24.05Z"/>
  <path class="cls-1" d="M1677.03,295.91c-16.38,0-32.38-2.39-43.28-19.81-.42-.67-.56-1.47-.4-2.25,6.53-31.37,11.04-39.26,40.4-44.82,1.66-.32,3.26.78,3.57,2.43.31,1.66-1.27,2.48-2.93,2.8-25.86,4.89-28.83,11.22-34.8,39.61,12.71,19.13,33.54,17.65,53.7,16.22,2.27-.16,4.53-.32,6.76-.45,35.31-2.07,72.47-6.76,110.47-13.93,31.56-5.96,51.4-13.91,72.21-40.82,1.03-1.34,2.95-1.58,4.29-.55,1.34,1.03,1.58,2.95.55,4.29-21.89,28.3-43.56,36.98-75.91,43.09-38.25,7.22-75.9,10.88-111.46,12.97-2.21.13-4.44.29-6.69.45-5.37.38-10.93.78-16.47.78Z"/>
  <path class="cls-1" d="M1372.16,295.09c-29.82,0-58.2-5.74-86.49-17.46-6.43-2.66-16.32.78-25.88,4.11-4.75,1.65-9.66,3.36-14.31,4.4-1.65.37-3.28-.67-3.65-2.32s.68-2.49,2.33-2.85c4.3-.96,9.04-2.61,13.62-4.2,10.64-3.71,21.65-7.54,30.23-3.98,57.55,23.83,116.23,22.77,184.67-3.35,6.26-2.39,14.77-3.47,23-4.52,6.48-.83,12.61-1.61,17.29-2.94,1.62-.47,3.31-.32,3.77,1.31.46,1.62-.48,3.31-2.1,3.78-5.12,1.46-11.47,2.27-18.19,3.13-7.87,1-16.01,2.04-21.59,4.17-33.37,12.73-64.08,19.46-93.88,20.58-2.95.11-5.89.17-8.81.17Z"/>
  <path class="cls-1" d="M34.86,299.63c-.74,0-1.49-.27-2.08-.81-1.24-1.15-1.31-3.08-.16-4.32,40.15-43.31,63.03-77.22,89.52-116.49,11.28-16.72,22.94-34.01,37.09-53.85,24.81-34.79,52.61-71.23,87.73-102,1.27-1.11,3.2-.99,4.31.28s.99,3.2-.28,4.31c-34.65,30.36-62.19,66.46-86.78,100.95-14.1,19.78-25.75,37.03-37,53.72-26.63,39.47-49.63,73.57-90.1,117.23-.6.65-1.42.98-2.24.98Z"/>
  <path class="cls-1" d="M656.19,286.39c-7.67,0-15.73-1.88-24.26-6.4-1.12-.59-1.76-1.82-1.6-3.08,6.59-53.1,28.34-99.79,49.38-145.78,6.56-14.35,13.35-29.19,19.55-43.92.65-1.56,2.45-2.29,4-1.63,1.56.65,2.29,2.45,1.63,4-6.23,14.82-13.04,29.7-19.62,44.1-20.56,44.94-41.81,91.4-48.6,142.72,20.97,10.18,38.78,2.88,58.93-11.21,1.38-.97,3.29-.63,4.26.75.97,1.38.63,2.43-.75,3.4-13.12,9.19-27.21,17.06-42.91,17.06Z"/>
  <path class="cls-1" d="M223.07,299.63s-.04,0-.07,0c-1.69-.03-3.03-1.43-2.99-3.12l2.21-104.4c0-.13.01-.25.03-.38,1.41-9.65,2.84-19.3,4.26-28.95,3.27-22.21,6.66-45.17,9.86-67.77,2.31-16.27,4.48-32.85,6.59-48.88.96-7.29,1.91-14.57,2.89-21.86.22-1.67,1.76-2.84,3.43-2.63,1.67.22,2.85,1.76,2.63,3.43-.97,7.28-1.93,14.57-2.88,21.85-2.11,16.05-4.29,32.64-6.6,48.94-3.2,22.62-6.59,45.58-9.87,67.8-1.41,9.58-2.83,19.17-4.23,28.75l-2.2,104.21c-.04,1.67-1.4,2.99-3.06,2.99Z"/>
  <path class="cls-1" d="M1053.68,296.44c-.7,0-1.41-.24-1.99-.74-1.28-1.1-1.43-3.03-.33-4.31,1.55-1.81,3.25-3.55,4.89-5.22,3.46-3.54,6.73-6.88,8.61-10.75,12.03-24.77,34.23-31.18,55.7-37.39,8.15-2.36,16.59-4.79,24.15-8.22,4.63-2.1,10.36.4,14.96,2.41,1.4.61,2.72,1.18,3.55,1.41,1.39.38,2.33,1.67,2.25,3.11-.49,9.04-.94,19.7-1.37,30.02-.41,9.62-.79,18.7-1.18,25.91-.09,1.68-1.52,2.98-3.22,2.89-1.69-.09-2.98-1.53-2.89-3.22.39-7.17.77-16.24,1.17-25.84.4-9.48.81-19.26,1.25-27.81-.64-.26-1.31-.55-2.02-.87-3.12-1.36-7.85-3.42-10-2.45-7.97,3.61-16.61,6.11-24.98,8.52-21.11,6.1-41.05,11.87-51.9,34.19-2.31,4.76-6.09,8.62-9.73,12.35-1.64,1.68-3.19,3.27-4.62,4.93-.6.7-1.46,1.07-2.32,1.07Z"/>
  <path class="cls-1" d="M97.55,239.3c-2.31,0-4.62-.11-6.89-.21-2.18-.1-4.44,1.01-6.61,1.01-1.69,0-2.09-1.65-2.09-3.34s1.37-3.06,3.06-3.06c2.31,0,3.42.11,5.67.22,4.84.23,9.42.44,13.77-.34,31.37-5.65,63.22-11.69,94.02-17.53,10.35-1.96,20.7-3.93,31.05-5.88,1.65-.31,3.57.75,3.57,2.44,0,2.14-.52,2.32-2.18,2.63-10.35,1.95-20.7,3.92-31.05,5.88-30.82,5.85-62.68,11.89-94.08,17.54-2.73.49-5.5.64-8.25.64Z"/>
  <path class="cls-1" d="M573.61,298.73c-9.13,0-17.18-1.72-24.02-5.17-6.04-3.05-10.3-7.55-12.09-14-1.77-6.38-.75-13.31,2.86-18.97,21.27-33.39,66.18-46.39,100.65-31.04,1.54.69,2.13,2.58,1.38,4.09-.75,1.52-2.58,2.13-4.1,1.38-15.21-7.53-33.35-8.55-51.09-2.89-17.25,5.51-32.44,17.07-41.68,31.71-2.7,4.28-3.46,9.28-2.13,14.07,1.32,4.76,4.51,8.63,8.99,10.89,17.36,8.77,45.35,4.48,78.83-12.09,1.51-.75,3.35-.13,4.1,1.38.75,1.51.08,2.62-1.43,3.37-23.14,11.45-43.52,17.24-60.27,17.24Z"/>
  <path class="cls-1" d="M1286.56,227.48c-3.01,0-6.09-.1-9.25-.31-1.68-.11-2.96-1.57-2.84-3.26.11-1.68,1.52-2.19,3.22-2.08,16.9,1.15,31.6-1.27,45.81-3.62,18.52-3.06,37.67-6.22,60.84-1.03,1.65.37,2.72,1.24,2.35,2.89s-2,2.68-3.65,2.32c-22.01-4.92-39.74-2-58.51,1.1-11.94,1.97-24.22,4-37.97,4Z"/>
  <path class="cls-1" d="M342.67,258.79c-1.25,0-.82-1.16-1.27-2.4-.58-1.59,1.7-3.05,3.28-3.62,2.78-1.01,5.65-1.91,8.42-2.78,6.09-1.91,11.84-3.71,16.93-6.65,29.91-17.24,56.15-27.87,87.01-23.76,1.67.22,2.85,1.76,2.63,3.43-.22,1.67-1.76,2.85-3.43,2.63-29.15-3.89-55.11,5.77-83.94,22.38-5.68,3.27-12.02,5.26-18.16,7.18-2.71.85-8.56,1.82-11.22,2.78-.34.13.1.8-.25.8Z"/>
  <path class="cls-1" d="M1288.5,278.04c-.99,0-1.96-.48-2.55-1.36-.94-1.41-.56-3.3.85-4.24,1.66-1.11,3.79-2.66,6.05-4.29,4.01-2.91,8.56-6.22,11.88-8.05,19.22-10.6,38.81-21.27,57.76-31.58,6.7-3.65,13.4-7.29,20.09-10.95,1.48-.81,3.34-.26,4.15,1.22.81,1.48.26,3.34-1.22,4.15-6.7,3.65-13.4,7.3-20.1,10.95-18.94,10.31-38.53,20.98-57.73,31.57-2.99,1.65-7.37,4.83-11.24,7.64-2.31,1.68-4.49,3.26-6.25,4.43-.52.35-1.11.51-1.69.51Z"/>
  <path class="cls-1" d="M1554.3,295.3c-3.26,0-6.55-.15-9.89-.47-16.57-1.61-25.48-4.63-31.3-17.44-3.93-8.65-1.55-18.09,6.1-24.09,38.94-30.53,90.21-35.71,130.63-13.18,1.47.82,2,2.68,1.18,4.16-.82,1.47-2.68,2.01-4.16,1.18-38.26-21.33-86.88-16.36-123.88,12.65-5.42,4.25-7.28,11.46-4.52,17.54,4.23,9.31,9.89,12.29,26.33,13.89,24.62,2.39,46.5-5.01,69.67-12.85,6.15-2.08,12.51-4.23,18.85-6.15,1.61-.48,3.32.42,3.81,2.04.49,1.62-.42,3.32-2.04,3.81-6.24,1.89-12.55,4.03-18.66,6.09-19.83,6.71-40.04,12.83-62.12,12.83Z"/>
  <path class="cls-1" d="M1160.21,295.53c-1.66,0-3.02-.59-3.06-2.25-.04-1.69,1.3-3.08,2.99-3.12,13.53-.29,23.98-.2,35.05-.1,5.91.05,12.06.1,19.04.1,1.69,0,3.06,1.37,3.06,3.06s-1.37,2.32-3.06,2.32c-7,0-13.17-.05-19.09-.1-11.02-.09-21.43-.18-34.87.1-.02,0-.04,0-.07,0Z"/>
  <path class="cls-1" d="M438.57,289.65c-.31,0-.62-.05-.92-.14-1.61-.51-2.5-2.23-1.99-3.84,3.25-10.25,6.37-22.71,9.4-33.59,2.9-10.43,5.63-20.27,8.37-28.89.51-1.61,2.23-2.51,3.84-1.99,1.61.51,2.5,2.23,1.99,3.84-2.7,8.51-5.42,18.31-8.3,28.68-3.04,10.93-6.18,23.45-9.46,33.8-.41,1.3-1.62,2.13-2.91,2.13Z"/>
  <path class="cls-1" d="M305.62,298.8c-.95,0-1.89-.45-2.49-1.28-.98-1.37-.66-3.28.71-4.26,1.73-1.24,3.47-2.46,5.21-3.69,3.72-2.62,7.56-5.32,11.23-8.08,13.18-9.91,17.22-24.23,21.51-39.38,2.7-9.55,5.5-19.43,10.76-28.15.87-1.44,2.75-1.91,4.2-1.04,1.45.87,1.91,2.75,1.04,4.2-4.84,8.02-7.4,17.07-10.11,26.65-4.37,15.46-8.9,31.45-23.72,42.6-3.75,2.82-7.63,5.55-11.39,8.2-1.73,1.22-3.46,2.43-5.18,3.66-.54.38-1.16.57-1.77.57Z"/>
  <path class="cls-1" d="M413.93,295.93c-1.4,0-2.43-.2-2.75-1.63-.37-1.65.67-3.28,2.32-3.65l42.48-9.44c1.64-.37,3.05-.09,3.41,1.55s-.67,3.28-2.32,3.65l-42.48,9.44c-.22.05-.45.07-.67.07Z"/>
</svg>